<svg id="Layer_1" data-name="Layer 1" xmlns="http://www.w3.org/2000/svg" viewBox="0 0 512 512"><title>circle-check</title><path d="M256,24.3333C126.4011,24.3333,21.3333,129.3957,21.3333,259S126.4011,493.6667,256,493.6667,490.6667,388.6043,490.6667,259,385.5989,24.3333,256,24.3333ZM256,451C149.9637,451,64,365.0363,64,259S149.9637,67,256,67s192,85.9637,192,192S362.0363,451,256,451Zm56.6773-249.7605L237.25,276.6667,207.0832,246.5a21.3365,21.3365,0,0,0-30.1717,30.1771l45.25,45.2341a21.3413,21.3413,0,0,0,30.1717,0l90.51-90.5051a21.3311,21.3311,0,1,0-30.1664-30.1669Z"/></svg>