<svg id="Layer_1" data-name="Layer 1" xmlns="http://www.w3.org/2000/svg" viewBox="0 0 512 512"><title>circle-cross</title><path d="M256,21.33C126.4,21.33,21.33,126.4,21.33,256S126.4,490.67,256,490.67,490.67,385.6,490.67,256,385.6,21.33,256,21.33ZM256,448C150,448,64,362,64,256S150,64,256,64s192,86,192,192S362,448,256,448Zm75.43-267.42a21.34,21.34,0,0,0-30.18,0L256,225.83l-45.25-45.24a21.33,21.33,0,0,0-30.18,30.17L225.83,256l-45.26,45.25a21.33,21.33,0,1,0,30.18,30.17L256,286.17l45.25,45.24a21.33,21.33,0,1,0,30.18-30.17L286.17,256l45.26-45.25A21.33,21.33,0,0,0,331.43,180.58Z"/></svg>