<svg id="Layer_1" data-name="Layer 1" xmlns="http://www.w3.org/2000/svg" viewBox="0 0 512 512"><title>circle-question</title><path d="M256,21.3333C126.4011,21.3333,21.3333,126.3957,21.3333,256S126.4011,490.6666,256,490.6666,490.6667,385.6042,490.6667,256,385.5989,21.3333,256,21.3333ZM256,448C149.9637,448,64,362.0363,64,256S149.9637,64,256,64s192,85.9637,192,192S362.0363,448,256,448Z"/><path d="M254.6719,322.1675a24.5184,24.5184,0,0,0-17.7363,7.0786,23.5876,23.5876,0,0,0-7.2705,17.4854c0,7.7314,2.56,13.873,7.6064,18.2534a25.8234,25.8234,0,0,0,17.4,6.4575,25.0128,25.0128,0,0,0,17.0547-6.5508c4.9824-4.4263,7.5088-10.5366,7.5088-18.16a24.2483,24.2483,0,0,0-24.5635-24.564Z"/><path d="M296.9795,151.7319c-11.1924-5.3926-24.24-8.1265-38.78-8.1265-15.6631,0-29.5918,3.2744-41.4,9.7329-11.8193,6.4644-20.95,14.7612-27.1416,24.66-6.2178,9.9351-9.3711,19.9292-9.3711,29.7051,0,5.208,2.1592,10.062,6.415,14.4258A21.284,21.284,0,0,0,202.5,228.74c10.5781,0,17.8154-6.2261,21.4873-18.43,3.3887-10.1655,7.543-17.92,12.35-23.0488,4.5449-4.853,11.9014-7.3135,21.8623-7.3135,8.5918,0,15.3779,2.4126,20.748,7.3745a23.22,23.22,0,0,1,7.8877,17.8823,20.04,20.04,0,0,1-2.5283,9.8721,39.5974,39.5974,0,0,1-6.61,8.7437c-2.7295,2.7295-7.26,6.8672-13.4658,12.2988a236.436,236.436,0,0,0-17.249,16.4346,57.1905,57.1905,0,0,0-10.6387,16.6436c-2.6748,6.3237-4.0312,13.8677-4.0312,22.4224,0,7.2915,2.0322,12.9336,6.0391,16.769a20.5307,20.5307,0,0,0,14.7041,5.7378c11.0518,0,18.002-6.0234,20.1016-17.418,1.0586-4.7109,1.8594-8.0332,2.38-9.8784a28.3535,28.3535,0,0,1,2.083-5.2378,30.1783,30.1783,0,0,1,4.1182-5.7812,99.9647,99.9647,0,0,1,7.7783-7.7754c12-10.73,20.46-18.4961,25.1465-23.0825a70.01,70.01,0,0,0,12.5332-16.8794,48.2924,48.2924,0,0,0,5.39-23.1631,55.31,55.31,0,0,0-9.332-30.8584C317.084,164.6719,308.2441,157.1626,296.9795,151.7319Z"/></svg>