<svg id="Layer_1" data-name="Layer 1" xmlns="http://www.w3.org/2000/svg" viewBox="0 0 512 512"><title>circle-cross</title><path d="M256,21.3333C126.4011,21.3333,21.3333,126.3957,21.3333,256S126.4011,490.6667,256,490.6667,490.6667,385.6043,490.6667,256,385.5989,21.3333,256,21.3333ZM256,448C149.9637,448,64,362.0363,64,256S149.9637,64,256,64s192,85.9637,192,192S362.0363,448,256,448Zm75.4272-267.4165a21.3381,21.3381,0,0,0-30.1771,0L256,225.8283l-45.25-45.2448A21.3346,21.3346,0,0,0,180.5728,210.75L225.8283,256l-45.2555,45.25A21.3346,21.3346,0,1,0,210.75,331.4165L256,286.1717l45.25,45.2448A21.3346,21.3346,0,1,0,331.4272,301.25L286.1717,256l45.2555-45.25A21.3349,21.3349,0,0,0,331.4272,180.5835Z"/></svg>