<svg id="Layer_1" data-name="Layer 1" xmlns="http://www.w3.org/2000/svg" viewBox="0 0 512 512"><title>circle-add</title><path d="M256,20.3333C126.4011,20.3333,21.3333,125.3957,21.3333,255S126.4011,489.6667,256,489.6667,490.6667,384.6043,490.6667,255,385.5989,20.3333,256,20.3333ZM256,447C149.9637,447,64,361.0363,64,255S149.9637,63,256,63s192,85.9637,192,192S362.0363,447,256,447Zm85.3333-213.3333h-64v-64a21.3333,21.3333,0,1,0-42.6667,0v64h-64a21.3333,21.3333,0,1,0,0,42.6667h64v64a21.3333,21.3333,0,1,0,42.6667,0v-64h64a21.3333,21.3333,0,1,0,0-42.6667Z"/></svg>