<svg id="Layer_1" data-name="Layer 1" xmlns="http://www.w3.org/2000/svg" viewBox="0 0 512 512"><title>circle-question</title><path d="M256,21.33C126.4,21.33,21.33,126.4,21.33,256S126.4,490.67,256,490.67,490.67,385.6,490.67,256,385.6,21.33,256,21.33ZM256,448C150,448,64,362,64,256S150,64,256,64s192,86,192,192S362,448,256,448Z"/><path d="M254.67,322.17a24.52,24.52,0,0,0-17.74,7.08,23.59,23.59,0,0,0-7.27,17.49c0,7.73,2.56,13.87,7.61,18.25a25.82,25.82,0,0,0,17.4,6.46,25,25,0,0,0,17.05-6.55c5-4.43,7.51-10.54,7.51-18.16a24.25,24.25,0,0,0-24.56-24.56Z"/><path d="M297,151.73c-11.19-5.39-24.24-8.13-38.78-8.13-15.66,0-29.59,3.27-41.4,9.73s-21,14.76-27.14,24.66-9.37,19.93-9.37,29.71c0,5.21,2.16,10.06,6.42,14.43a21.28,21.28,0,0,0,15.8,6.61c10.58,0,17.82-6.23,21.49-18.43,3.39-10.17,7.54-17.92,12.35-23,4.54-4.85,11.9-7.31,21.86-7.31,8.59,0,15.38,2.41,20.75,7.37a23.22,23.22,0,0,1,7.89,17.88,20,20,0,0,1-2.53,9.87,39.6,39.6,0,0,1-6.61,8.74c-2.73,2.73-7.26,6.87-13.47,12.3A236.44,236.44,0,0,0,247,252.55a57.19,57.19,0,0,0-10.64,16.64c-2.67,6.32-4,13.87-4,22.42,0,7.29,2,12.93,6,16.77a20.53,20.53,0,0,0,14.7,5.74c11.05,0,18-6,20.1-17.42,1.06-4.71,1.86-8,2.38-9.88a28.35,28.35,0,0,1,2.08-5.24,30.18,30.18,0,0,1,4.12-5.78,100,100,0,0,1,7.78-7.78c12-10.73,20.46-18.5,25.15-23.08a70,70,0,0,0,12.53-16.88,48.29,48.29,0,0,0,5.39-23.16,55.31,55.31,0,0,0-9.33-30.86C317.08,164.67,308.24,157.16,297,151.73Z"/></svg>