<svg id="Layer_1" data-name="Layer 1" xmlns="http://www.w3.org/2000/svg" viewBox="0 0 512 512"><title>home</title><path d="M507.2618,273.933l-80.5961-82.9917V70.2459a16.7621,16.7621,0,0,0-16.7619-16.7619H354.031a16.7621,16.7621,0,0,0-16.7619,16.7619V98.8874L268.0242,27.5843a16.7619,16.7619,0,0,0-24.05,0L4.7371,273.933a16.7619,16.7619,0,0,0,12.0248,28.4394H50.7936V472.5308a16.7621,16.7621,0,0,0,16.7619,16.7619H207.2377V363.4963a21.5293,21.5293,0,0,1,21.5049-21.5049h54.5138a21.5293,21.5293,0,0,1,21.5049,21.5049V489.2926H439.3641a16.7621,16.7621,0,0,0,16.7619-16.7619V302.3724h39.111a16.7619,16.7619,0,0,0,12.0248-28.4394Zm-84.66,181.8359H338.285V363.4963a55.0909,55.0909,0,0,0-55.0287-55.0287H228.7426a55.0909,55.0909,0,0,0-55.0287,55.0287v92.2726H84.3173v-186.92H56.4056l29.5964-30.4761L255.9995,63.3218l81.27,83.6855,33.5237,34.52v-94.52H393.142V204.541l10.1644,10.4666,22.69,23.365,29.5964,30.4761h-32.991v186.92Z"/></svg>