<svg id="Layer_1" data-name="Layer 1" xmlns="http://www.w3.org/2000/svg" viewBox="0 0 512 512"><title>home</title><path d="M507.26,273.93l-80.6-83V70.25A16.76,16.76,0,0,0,409.9,53.48H354a16.76,16.76,0,0,0-16.76,16.76V98.89L268,27.58a16.76,16.76,0,0,0-24,0L4.74,273.93a16.76,16.76,0,0,0,12,28.44h34V472.53a16.76,16.76,0,0,0,16.76,16.76H207.24V363.5a21.53,21.53,0,0,1,21.5-21.5h54.51a21.53,21.53,0,0,1,21.5,21.5v125.8h134.6a16.76,16.76,0,0,0,16.76-16.76V302.37h39.11a16.76,16.76,0,0,0,12-28.44ZM422.6,455.77H338.28V363.5a55.09,55.09,0,0,0-55-55H228.74a55.09,55.09,0,0,0-55,55v92.27H84.32V268.85H56.41L86,238.37,256,63.32,337.27,147l33.52,34.52V87h22.35V204.54L403.31,215,426,238.37l29.6,30.48h-33V455.77Z"/></svg>