<svg id="Layer_1" data-name="Layer 1" xmlns="http://www.w3.org/2000/svg" viewBox="0 0 512 512"><title>layout</title><path d="M426.6667,21.3333H85.3333a64,64,0,0,0-64,64V426.6667a64,64,0,0,0,64,64H426.6667a64,64,0,0,0,64-64V85.3333A64,64,0,0,0,426.6667,21.3333ZM85.3333,64H426.6667A21.3343,21.3343,0,0,1,448,85.3333v64H64v-64A21.3343,21.3343,0,0,1,85.3333,64ZM64,426.6667V192H170.6667V448H85.3333A21.3343,21.3343,0,0,1,64,426.6667ZM426.6667,448H213.3333V192H448V426.6667A21.3343,21.3343,0,0,1,426.6667,448Z"/></svg>