<svg id="Layer_1" data-name="Layer 1" xmlns="http://www.w3.org/2000/svg" viewBox="0 0 512 512"><title>list</title><path d="M405.75,0H107.0833a63.9831,63.9831,0,0,0-64,64V448a63.9831,63.9831,0,0,0,64,64H405.75a63.9831,63.9831,0,0,0,64-64V64A63.9831,63.9831,0,0,0,405.75,0Zm21.3333,448A21.3275,21.3275,0,0,1,405.75,469.3333H107.0833A21.3275,21.3275,0,0,1,85.75,448V64a21.3276,21.3276,0,0,1,21.3333-21.3333H405.75A21.3276,21.3276,0,0,1,427.0833,64ZM341.75,362.6667H171.0833a21.3333,21.3333,0,0,0,0,42.6667H341.75a21.3333,21.3333,0,0,0,0-42.6667Zm0-85.3333H171.0833a21.3333,21.3333,0,0,0,0,42.6667H341.75a21.3333,21.3333,0,0,0,0-42.6667Zm0-85.3333H171.0833a21.3333,21.3333,0,0,0,0,42.6667H341.75a21.3333,21.3333,0,0,0,0-42.6667ZM171.0833,149.3333h85.3333a21.3333,21.3333,0,0,0,0-42.6667H171.0833a21.3333,21.3333,0,1,0,0,42.6667Z"/></svg>