<svg id="Layer_1" data-name="Layer 1" xmlns="http://www.w3.org/2000/svg" viewBox="0 0 512 512"><title>list</title><path d="M405.75,0H107.08a64,64,0,0,0-64,64V448a64,64,0,0,0,64,64H405.75a64,64,0,0,0,64-64V64A64,64,0,0,0,405.75,0Zm21.33,448a21.33,21.33,0,0,1-21.33,21.33H107.08A21.33,21.33,0,0,1,85.75,448V64a21.33,21.33,0,0,1,21.33-21.33H405.75A21.33,21.33,0,0,1,427.08,64Zm-85.33-85.33H171.08a21.33,21.33,0,0,0,0,42.67H341.75a21.33,21.33,0,0,0,0-42.67Zm0-85.33H171.08a21.33,21.33,0,0,0,0,42.67H341.75a21.33,21.33,0,0,0,0-42.67Zm0-85.33H171.08a21.33,21.33,0,0,0,0,42.67H341.75a21.33,21.33,0,0,0,0-42.67ZM171.08,149.33h85.33a21.33,21.33,0,0,0,0-42.67H171.08a21.33,21.33,0,1,0,0,42.67Z"/></svg>