<svg id="Layer_1" data-name="Layer 1" xmlns="http://www.w3.org/2000/svg" viewBox="0 0 512 512"><title>pencil</title><path d="M336.16,137h0m-9.64,9.63,39,39L129.44,422,71,441.17l19.16-58.44L326.52,146.6m-235.34,233h0M411.61,29.85A35,35,0,0,0,386,40.53L363.2,63.27a19.37,19.37,0,0,0,0,27.4l58.29,58.25a19.37,19.37,0,0,0,27.39,0l22.69-22.69a34,34,0,0,0,10.74-25.53,35,35,0,0,0-10.74-25.84L454.8,57.37,437.32,40.53a35.1,35.1,0,0,0-25.71-10.67ZM326.53,108a19.31,19.31,0,0,0-13.69,5.67L64.54,361.69a19.37,19.37,0,0,0-4.72,7.67L31.25,456.48a19.4,19.4,0,0,0,18.31,25.44,19.64,19.64,0,0,0,6.13-1l87.13-28.58a19.37,19.37,0,0,0,7.67-4.72l248-248.31a19.37,19.37,0,0,0,0-27.38l-58.27-58.31a19.31,19.31,0,0,0-13.7-5.68Z"/></svg>