<svg id="Layer_1" data-name="Layer 1" xmlns="http://www.w3.org/2000/svg" viewBox="0 0 512 512"><title>pencil</title><path d="M336.1581,136.969h0m-9.64,9.6312,39.0109,39.0375L129.44,422.0058,70.998,441.1739l19.1649-58.4415L326.5177,146.6M91.1776,379.6385h0M411.6057,29.8526A34.9583,34.9583,0,0,0,385.95,40.5265L363.2019,63.2749a19.3711,19.3711,0,0,0,.0051,27.4l58.2925,58.249a19.3707,19.3707,0,0,0,27.39-.0052l22.6946-22.6945a34.0145,34.0145,0,0,0,10.7378-25.5278,34.99,34.99,0,0,0-10.7378-25.8408L454.8,57.3745l-17.4806-16.848a35.0971,35.0971,0,0,0-25.7133-10.6738Zm-85.08,78.1036a19.3122,19.3122,0,0,0-13.6908,5.6671L64.5362,361.688a19.3712,19.3712,0,0,0-4.7156,7.6677L31.249,456.4812a19.4038,19.4038,0,0,0,18.31,25.4395,19.6369,19.6369,0,0,0,6.1339-.9969l87.1255-28.5762a19.3732,19.3732,0,0,0,7.6685-4.7169L398.4994,199.3244a19.3709,19.3709,0,0,0-.0035-27.382l-58.2683-58.308a19.308,19.308,0,0,0-13.7021-5.6782Z"/></svg>