<svg id="Layer_1" data-name="Layer 1" xmlns="http://www.w3.org/2000/svg" viewBox="0 0 512 512"><title>shopping-cart</title><path d="M342.7478,437.1151A32.33,32.33,0,0,0,374.72,469.0874a30.2686,30.2686,0,0,0,22.3369-9.4674,30.8364,30.8364,0,0,0,9.351-22.5049,31.2861,31.2861,0,0,0-9.351-22.621,30.02,30.02,0,0,0-22.3369-9.6357,30.4744,30.4744,0,0,0-22.6733,9.6357A31.445,31.445,0,0,0,342.7478,437.1151Z"/><path d="M507.2532,111.7322a20.16,20.16,0,0,0-16.0964-7.54H116.8518l-7.534-34.689a57.8764,57.8764,0,0,0-1.9277-6.0078,57.0675,57.0675,0,0,0-3.3492-7.3719,41.45,41.45,0,0,0-4.307-6.5186,20.3108,20.3108,0,0,0-4.0227-4.0228c-2.6063-.7372-5.9551-1.4744-9.9783-2.2117a60.9662,60.9662,0,0,0-10.5994-1.1318H10.9624c-7.256,0-10.8259,3.6279-10.8259,10.8258V74.2048c0,7.2036,3.57,10.8315,10.8259,10.8315H58.1837a13.451,13.451,0,0,1,8.2194,2.7747,12.6234,12.6234,0,0,1,4.876,7.1978l59.7483,282.3585a45.1045,45.1045,0,0,0,1.9267,5.95,51.8086,51.8086,0,0,0,3.46,7.54,73.3336,73.3336,0,0,0,4.3076,6.8031c1.474,2.0432,2.7741,3.2333,3.9119,3.6279a49.0741,49.0741,0,0,0,9.8622,2.6064,56.9266,56.9266,0,0,0,10.1466.9635H420.0142a10.8974,10.8974,0,0,0,7.7667-2.8907,9.7526,9.7526,0,0,0,3.06-7.3662V372.9441a10.52,10.52,0,0,0-3.1756-7.6506,10.4,10.4,0,0,0-7.6507-3.1752H182.1548a13.9124,13.9124,0,0,1-13.09-10.3148l-9.694-46.7106H460.5428a20.7231,20.7231,0,0,0,13.775-4.7076,21.258,21.258,0,0,0,7.372-11.6732l29.9867-160.5931C512.9825,122.1633,511.5081,116.7242,507.2532,111.7322ZM450.999,271.8236H159.3712a33.2625,33.2625,0,0,0-15.824,4.0042l-29.3-138.4679q1.2907.1007,2.605.1013h359.236Z"/><path d="M161.8615,437.1151a30.7879,30.7879,0,0,0,9.2991,22.5049,30.28,30.28,0,0,0,22.3887,9.4674,31.31,31.31,0,0,0,23.0157-9.4674,30.4972,30.4972,0,0,0,9.4674-22.5049,32.6144,32.6144,0,0,0-32.4832-32.2567,30.03,30.03,0,0,0-22.3887,9.6357A31.2365,31.2365,0,0,0,161.8615,437.1151Z"/></svg>