<svg id="Layer_1" data-name="Layer 1" xmlns="http://www.w3.org/2000/svg" viewBox="0 0 512 512"><title>shopping-cart</title><path d="M342.75,437.12a32.33,32.33,0,0,0,32,32,30.27,30.27,0,0,0,22.34-9.47,30.84,30.84,0,0,0,9.35-22.5,31.29,31.29,0,0,0-9.35-22.62,30,30,0,0,0-22.34-9.64A30.47,30.47,0,0,0,352,414.49,31.45,31.45,0,0,0,342.75,437.12Z"/><path d="M507.25,111.73a20.16,20.16,0,0,0-16.1-7.54H116.85L109.32,69.5a57.88,57.88,0,0,0-1.93-6A57.07,57.07,0,0,0,104,56.12a41.45,41.45,0,0,0-4.31-6.52,20.31,20.31,0,0,0-4-4c-2.61-.74-6-1.47-10-2.21a61,61,0,0,0-10.6-1.13H11C3.71,42.24.14,45.87.14,53.06V74.2C.14,81.41,3.71,85,11,85H58.18a13.45,13.45,0,0,1,8.22,2.77A12.62,12.62,0,0,1,71.28,95L131,377.37a45.1,45.1,0,0,0,1.93,5.95,51.81,51.81,0,0,0,3.46,7.54,73.33,73.33,0,0,0,4.31,6.8c1.47,2,2.77,3.23,3.91,3.63a49.07,49.07,0,0,0,9.86,2.61,56.93,56.93,0,0,0,10.15,1H420a10.9,10.9,0,0,0,7.77-2.89,9.75,9.75,0,0,0,3.06-7.37V372.94a10.52,10.52,0,0,0-3.18-7.65,10.4,10.4,0,0,0-7.65-3.18H182.15a13.91,13.91,0,0,1-13.09-10.31l-9.69-46.71H460.54a20.72,20.72,0,0,0,13.78-4.71,21.26,21.26,0,0,0,7.37-11.67l30-160.59C513,122.16,511.51,116.72,507.25,111.73ZM451,271.82H159.37a33.26,33.26,0,0,0-15.82,4l-29.3-138.47q1.29.1,2.61.1H476.09Z"/><path d="M161.86,437.12a30.79,30.79,0,0,0,9.3,22.5,30.28,30.28,0,0,0,22.39,9.47,31.31,31.31,0,0,0,23-9.47,30.5,30.5,0,0,0,9.47-22.5,32.61,32.61,0,0,0-32.48-32.26,30,30,0,0,0-22.39,9.64A31.24,31.24,0,0,0,161.86,437.12Z"/></svg>