<svg id="Layer_1" data-name="Layer 1" xmlns="http://www.w3.org/2000/svg" viewBox="0 0 512 512"><defs><style>.cls-1{fill-rule:evenodd;}</style></defs><title>sidebar-toggle</title><path class="cls-1" d="M52.72,152.8255,183.3061,85.1487c4.92-2.55,11.567-1.5163,14.8469,2.3083a7.08,7.08,0,0,1,1.7981,4.6167V227.4272c0,4.5966-4.7934,8.3228-10.7062,8.3228a12.9889,12.9889,0,0,1-5.9387-1.3978L52.72,166.6754c-4.92-2.55-6.2493-7.7171-2.9694-11.5417A9.8827,9.8827,0,0,1,52.72,152.8255Z"/><path class="cls-1" d="M199.9511,200.6789V117.2284l250.8356-1c7.1654,0,12.9741,3.7362,12.9741,8.3451v66.76c0,4.6089-5.8088,8.3451-12.9741,8.3451Z"/><path class="cls-1" d="M458.9922,358.6745,328.4058,426.3513c-4.92,2.55-11.567,1.5163-14.8469-2.3083a7.08,7.08,0,0,1-1.7981-4.6167V284.0728c0-4.5966,4.7934-8.3228,10.7062-8.3228a12.9889,12.9889,0,0,1,5.9387,1.3978l130.5864,67.6767c4.92,2.55,6.2493,7.7171,2.9694,11.5417A9.8827,9.8827,0,0,1,458.9922,358.6745Z"/><path class="cls-1" d="M311.7608,310.8211v83.4506l-250.8356,1c-7.1654,0-12.9741-3.7362-12.9741-8.3451v-66.76c0-4.6089,5.8088-8.3451,12.9741-8.3451Z"/></svg>