<svg id="Layer_1" data-name="Layer 1" xmlns="http://www.w3.org/2000/svg" viewBox="0 0 512 512"><title>user</title><path d="M344.91,284A127.58,127.58,0,0,0,384,192V128a128,128,0,0,0-256,0v64a127.62,127.62,0,0,0,39.07,92C69.53,299.21,0,338.6,0,384.5v42.17a64,64,0,0,0,64,64H448a64,64,0,0,0,64-64v-42C512,338.77,442.46,299.26,344.91,284ZM170.67,192V128a85.33,85.33,0,1,1,170.67,0v64a85.33,85.33,0,0,1-170.67,0ZM469.33,426.67A21.35,21.35,0,0,1,448,448H64a21.35,21.35,0,0,1-21.33-21.33V384.5c0-5,12.29-21,48.81-36.33C134.17,330.27,194.14,320,256,320s121.79,10.29,164.49,28.23c36.54,15.36,48.84,31.44,48.84,36.43Z"/></svg>