<svg id="Layer_1" data-name="Layer 1" xmlns="http://www.w3.org/2000/svg" viewBox="0 0 512 512"><title>user</title><path d="M344.9115,284.0315A127.5806,127.5806,0,0,0,384,192V128a128,128,0,0,0-256,0v64a127.6182,127.6182,0,0,0,39.0731,92.0155C69.5312,299.2085,0,338.6043,0,384.5v42.1664a63.9831,63.9831,0,0,0,64,64H448a63.9831,63.9831,0,0,0,64-64v-42C512,338.7707,442.4635,299.26,344.9115,284.0315ZM170.6667,192V128a85.3333,85.3333,0,1,1,170.6667,0v64a85.3333,85.3333,0,0,1-170.6667,0ZM469.3333,426.6667A21.3541,21.3541,0,0,1,448,448H64a21.3543,21.3543,0,0,1-21.3333-21.3333V384.5c0-4.9691,12.2917-21.0213,48.8123-36.3285C134.1669,330.2656,194.1355,320,256,320c61.8336,0,121.7867,10.2917,164.49,28.2341,36.5419,15.3595,48.8437,31.4432,48.8437,36.4325Z"/></svg>