<svg id="Layer_1" data-name="Layer 1" xmlns="http://www.w3.org/2000/svg" viewBox="0 0 512 512"><title>wrench</title><path d="M492.8643,166.3267a15.9676,15.9676,0,0,0-15.28-2.4939L359.9856,206.0074,321.769,174.2328l8.9475-49.0535,117.3167-42.986a15.967,15.967,0,0,0,5.61-26.4667,155.4962,155.4962,0,0,0-49.05-32.0446A150.6889,150.6889,0,0,0,346.8562,12.25a146.64,146.64,0,0,0-59.0574,12.1343,152.2855,152.2855,0,0,0-80.7017,81.0966,150.1617,150.1617,0,0,0-12.0942,59.3781c0,.0887.001.1774.002.2665a163.9905,163.9905,0,0,0,3.3525,29.3913l-167.27,167.264A62.1723,62.1723,0,0,0,17.853,381.4991a61.4286,61.4286,0,0,0-4.8044,24.0488,56.3122,56.3122,0,0,0,6.5647,26.8234,101.4613,101.4613,0,0,0,13.8562,19.81,194.9259,194.9259,0,0,0,16.0754,16.0764c5.0852,4.5707,9.7056,8.9294,13.77,12.9924,12.0242,11.9442,26.8325,18,44.0132,18,16.6084,0,31.1265-6.056,43.1982-18.0474L316.8584,314.5833a155.7452,155.7452,0,0,0,31.104,3.2356,148.9676,148.9676,0,0,0,55.73-10.5292,152.7319,152.7319,0,0,0,79.0654-72.4289,154.7084,154.7084,0,0,0,16.0879-54.2538A15.9693,15.9693,0,0,0,492.8643,166.3267Zm-38.5127,53.9444A120.7977,120.7977,0,0,1,391.75,277.6727a117.1177,117.1177,0,0,1-43.7871,8.2117,127.7933,127.7933,0,0,1-32.1147-4.309,15.9625,15.9625,0,0,0-15.325,4.1711L127.9736,458.5933c-5.9917,5.9506-12.5513,8.7223-20.646,8.7223-8.6833,0-15.5171-2.7717-21.4707-8.6853-4.4253-4.4245-9.4609-9.1769-15.0334-14.1842a163.4307,163.4307,0,0,1-13.489-13.4841,68.6723,68.6723,0,0,1-9.5312-13.5966,24.4316,24.4316,0,0,1-2.82-11.8176A29.2355,29.2355,0,0,1,47.2468,393.98a29.918,29.918,0,0,1,6.42-9.6165L227.145,210.8914a15.9656,15.9656,0,0,0,4.2119-15.1145,141.7233,141.7233,0,0,1-4.4195-31.0534,116.7008,116.7008,0,0,1,9.4981-46.6284,123.5007,123.5007,0,0,1,25.855-38.6165,121.6178,121.6178,0,0,1,38.2681-25.82,114.9244,114.9244,0,0,1,46.2976-9.4747,118.9026,118.9026,0,0,1,45.5559,9.0176A126.7092,126.7092,0,0,1,410.01,62.1149L311.1543,98.3364A15.9681,15.9681,0,0,0,300.94,110.4639l-12.261,67.2169a15.9683,15.9683,0,0,0,5.5,15.1432l52.4043,43.57a15.9612,15.9612,0,0,0,15.5986,2.7516l99.1948-35.5744A117.3207,117.3207,0,0,1,454.3516,220.2711Z"/><path d="M114.1016,383.5483a18.008,18.008,0,0,0-13.469,5.3527,19.4581,19.4581,0,0,0,0,26.6115,17.7754,17.7754,0,0,0,13.469,5.4945,17.5345,17.5345,0,0,0,13.093-5.4945,18.1047,18.1047,0,0,0,5.4016-13.2348,17.723,17.723,0,0,0-5.4941-13.4745A18.1394,18.1394,0,0,0,114.1016,383.5483Z"/></svg>