<svg id="Layer_1" data-name="Layer 1" xmlns="http://www.w3.org/2000/svg" viewBox="0 0 512 512"><title>wrench</title><path d="M492.86,166.33a16,16,0,0,0-15.28-2.49L360,206l-38.22-31.77,8.95-49.05L448,82.19a16,16,0,0,0,5.61-26.47,155.5,155.5,0,0,0-49.05-32,150.69,150.69,0,0,0-57.74-11.43A146.64,146.64,0,0,0,287.8,24.38a152.29,152.29,0,0,0-80.7,81.1A150.16,150.16,0,0,0,195,164.86c0,.09,0,.18,0,.27a164,164,0,0,0,3.35,29.39L31.09,361.78A62.17,62.17,0,0,0,17.85,381.5a61.43,61.43,0,0,0-4.8,24,56.31,56.31,0,0,0,6.56,26.82,101.46,101.46,0,0,0,13.86,19.81,194.93,194.93,0,0,0,16.08,16.08c5.09,4.57,9.71,8.93,13.77,13,12,11.94,26.83,18,44,18,16.61,0,31.13-6.06,43.2-18L316.86,314.58a155.75,155.75,0,0,0,31.1,3.24,149,149,0,0,0,55.73-10.53,152.73,152.73,0,0,0,79.07-72.43,154.71,154.71,0,0,0,16.09-54.25A16,16,0,0,0,492.86,166.33Zm-38.51,53.94a120.8,120.8,0,0,1-62.6,57.4A117.12,117.12,0,0,1,348,285.88a127.79,127.79,0,0,1-32.11-4.31,16,16,0,0,0-15.32,4.17L128,458.59c-6,6-12.55,8.72-20.65,8.72-8.68,0-15.52-2.77-21.47-8.69-4.43-4.42-9.46-9.18-15-14.18A163.43,163.43,0,0,1,57.33,431a68.67,68.67,0,0,1-9.53-13.6A24.43,24.43,0,0,1,45,405.55,29.24,29.24,0,0,1,47.25,394a29.92,29.92,0,0,1,6.42-9.62L227.15,210.89a16,16,0,0,0,4.21-15.11,141.72,141.72,0,0,1-4.42-31.05,116.7,116.7,0,0,1,9.5-46.63,123.5,123.5,0,0,1,25.85-38.62,121.62,121.62,0,0,1,38.27-25.82,114.92,114.92,0,0,1,46.3-9.47,118.9,118.9,0,0,1,45.56,9A126.71,126.71,0,0,1,410,62.11L311.15,98.34a16,16,0,0,0-10.21,12.13l-12.26,67.22a16,16,0,0,0,5.5,15.14l52.4,43.57a16,16,0,0,0,15.6,2.75l99.19-35.57A117.32,117.32,0,0,1,454.35,220.27Z"/><path d="M114.1,383.55a18,18,0,0,0-13.47,5.35,19.46,19.46,0,0,0,0,26.61A17.78,17.78,0,0,0,114.1,421a17.53,17.53,0,0,0,13.09-5.49,18.1,18.1,0,0,0,5.4-13.23,17.72,17.72,0,0,0-5.49-13.47A18.14,18.14,0,0,0,114.1,383.55Z"/></svg>