<?xml version="1.0" encoding="UTF-8"?>
<svg width="48px" height="48px" viewBox="0 0 48 48" version="1.1" xmlns="http://www.w3.org/2000/svg" xmlns:xlink="http://www.w3.org/1999/xlink">
    <!-- Generator: Sketch 44.1 (41455) - http://www.bohemiancoding.com/sketch -->
    <title>sidebar-toggle</title>
    <desc>Created with Sketch.</desc>
    <defs></defs>
    <g id="Page-1" stroke="none" stroke-width="1" fill="none" fill-rule="evenodd">
        <g id="sidebar-toggle" fill="#FFFFFF">
            <g id="Group-2" transform="translate(23.500000, 24.000000) rotate(-90.000000) translate(-23.500000, -24.000000) translate(3.500000, 5.500000)">
                <g id="Group" transform="translate(20.000000, 0.000000)">
                    <path d="M10.8320503,1.24807544 L18.9635332,13.4452998 L18.9635332,13.4452998 C19.2698857,13.9048285 19.1457118,14.5256978 18.6861831,14.8320503 C18.5219156,14.941562 18.3289079,15 18.1314829,15 L1.86851709,15 L1.86851709,15 C1.31623234,15 0.868517092,14.5522847 0.868517092,14 C0.868517092,13.802575 0.926955119,13.6095673 1.0364668,13.4452998 L9.16794971,1.24807544 L9.16794971,1.24807544 C9.47430216,0.788546753 10.0951715,0.664372884 10.5547002,0.970725343 C10.6645525,1.0439602 10.7588154,1.13822315 10.8320503,1.24807544 Z" id="Triangle"></path>
                    <path d="M5,15 L15,15 L15,35 L15,35 C15,35.5522847 14.5522847,36 14,36 L6,36 L6,36 C5.44771525,36 5,35.5522847 5,35 L5,15 Z" id="Rectangle"></path>
                </g>
                <g id="Group" transform="translate(10.000000, 19.000000) rotate(-180.000000) translate(-10.000000, -19.000000) translate(0.000000, 1.000000)">
                    <path d="M10.8320503,1.24807544 L18.9635332,13.4452998 L18.9635332,13.4452998 C19.2698857,13.9048285 19.1457118,14.5256978 18.6861831,14.8320503 C18.5219156,14.941562 18.3289079,15 18.1314829,15 L1.86851709,15 L1.86851709,15 C1.31623234,15 0.868517092,14.5522847 0.868517092,14 C0.868517092,13.802575 0.926955119,13.6095673 1.0364668,13.4452998 L9.16794971,1.24807544 L9.16794971,1.24807544 C9.47430216,0.788546753 10.0951715,0.664372884 10.5547002,0.970725343 C10.6645525,1.0439602 10.7588154,1.13822315 10.8320503,1.24807544 Z" id="Triangle"></path>
                    <path d="M5,15 L15,15 L15,35 L15,35 C15,35.5522847 14.5522847,36 14,36 L6,36 L6,36 C5.44771525,36 5,35.5522847 5,35 L5,15 Z" id="Rectangle"></path>
                </g>
            </g>
        </g>
    </g>
</svg>